<svg width="1024" height="1024" viewBox="0 0 1024 1024" fill="none" xmlns="http://www.w3.org/2000/svg">
  <defs>
    <linearGradient id="bg" x1="120" y1="96" x2="928" y2="928" gradientUnits="userSpaceOnUse">
      <stop stop-color="#F9F0E1"/>
      <stop offset="0.52" stop-color="#E9D8BE"/>
      <stop offset="1" stop-color="#D2B992"/>
    </linearGradient>
    <radialGradient id="glow" cx="0" cy="0" r="1" gradientUnits="userSpaceOnUse" gradientTransform="translate(520 306) rotate(90) scale(566 616)">
      <stop stop-color="#FFF9F0" stop-opacity="0.95"/>
      <stop offset="1" stop-color="#FFF9F0" stop-opacity="0"/>
    </radialGradient>
    <linearGradient id="panel" x1="204" y1="164" x2="836" y2="892" gradientUnits="userSpaceOnUse">
      <stop stop-color="#FFF8EE"/>
      <stop offset="1" stop-color="#E5D0AE"/>
    </linearGradient>
    <linearGradient id="book-red" x1="0" y1="0" x2="1" y2="1">
      <stop stop-color="#C85E4F"/>
      <stop offset="1" stop-color="#7F261E"/>
    </linearGradient>
    <linearGradient id="book-blue" x1="0" y1="0" x2="1" y2="1">
      <stop stop-color="#5A7DAA"/>
      <stop offset="1" stop-color="#23456F"/>
    </linearGradient>
    <linearGradient id="book-green" x1="0" y1="0" x2="1" y2="1">
      <stop stop-color="#5F8768"/>
      <stop offset="1" stop-color="#29452F"/>
    </linearGradient>
    <linearGradient id="pages" x1="0" y1="0" x2="1" y2="1">
      <stop stop-color="#FFF8EC"/>
      <stop offset="1" stop-color="#E7D8BD"/>
    </linearGradient>
    <filter id="shadow" x="136" y="122" width="752" height="780" filterUnits="userSpaceOnUse" color-interpolation-filters="sRGB">
      <feFlood flood-opacity="0" result="BackgroundImageFix"/>
      <feColorMatrix in="SourceAlpha" type="matrix" values="0 0 0 0 0 0 0 0 0 0 0 0 0 0 0 0 0 0 127 0" result="hardAlpha"/>
      <feOffset dy="24"/>
      <feGaussianBlur stdDeviation="28"/>
      <feColorMatrix type="matrix" values="0 0 0 0 0.282353 0 0 0 0 0.2 0 0 0 0 0.109804 0 0 0 0.22 0"/>
      <feBlend mode="normal" in2="BackgroundImageFix" result="effect1_dropShadow_1_2"/>
      <feBlend mode="normal" in="SourceGraphic" in2="effect1_dropShadow_1_2" result="shape"/>
    </filter>
    <filter id="book-shadow" x="230" y="220" width="564" height="548" filterUnits="userSpaceOnUse" color-interpolation-filters="sRGB">
      <feFlood flood-opacity="0" result="BackgroundImageFix"/>
      <feColorMatrix in="SourceAlpha" type="matrix" values="0 0 0 0 0 0 0 0 0 0 0 0 0 0 0 0 0 0 127 0" result="hardAlpha"/>
      <feOffset dy="18"/>
      <feGaussianBlur stdDeviation="16"/>
      <feColorMatrix type="matrix" values="0 0 0 0 0.172549 0 0 0 0 0.109804 0 0 0 0 0.0627451 0 0 0 0.24 0"/>
      <feBlend mode="normal" in2="BackgroundImageFix" result="effect1_dropShadow_1_2"/>
      <feBlend mode="normal" in="SourceGraphic" in2="effect1_dropShadow_1_2" result="shape"/>
    </filter>
  </defs>

  <rect width="1024" height="1024" rx="232" fill="url(#bg)"/>
  <rect width="1024" height="1024" rx="232" fill="url(#glow)"/>

  <g filter="url(#shadow)">
    <rect x="188" y="170" width="648" height="648" rx="148" fill="url(#panel)"/>
    <rect x="188" y="170" width="648" height="648" rx="148" stroke="#F7E8D1" stroke-width="8"/>
  </g>

  <g opacity="0.28">
    <path d="M256 752C340 722.667 439.333 708 554 708C668.667 708 760 722.667 828 752" stroke="#A88657" stroke-width="18" stroke-linecap="round"/>
    <path d="M254 786C353.333 760 458.667 747 570 747C681.333 747 767.333 760 828 786" stroke="#E7D2B1" stroke-width="10" stroke-linecap="round"/>
  </g>

  <g filter="url(#book-shadow)">
    <g transform="translate(278 300) rotate(-11 182 206)">
      <rect x="0" y="38" width="232" height="324" rx="26" fill="url(#book-red)"/>
      <rect x="18" y="24" width="232" height="324" rx="26" fill="#A93F35"/>
      <rect x="28" y="24" width="178" height="324" rx="22" fill="url(#book-red)"/>
      <rect x="206" y="24" width="44" height="324" rx="14" fill="url(#pages)"/>
      <path d="M212 42C228 44.5 239.333 49.6667 246 57.5" stroke="#D8C4A1" stroke-width="4" stroke-linecap="round"/>
      <path d="M210 84C226 86.5 237.333 91.6667 244 99.5" stroke="#D8C4A1" stroke-width="4" stroke-linecap="round"/>
      <rect x="56" y="102" width="122" height="28" rx="14" fill="#EBC79E" fill-opacity="0.78"/>
      <rect x="56" y="148" width="94" height="12" rx="6" fill="#F7EADF" fill-opacity="0.7"/>
      <rect x="56" y="172" width="112" height="12" rx="6" fill="#F7EADF" fill-opacity="0.54"/>
    </g>

    <g transform="translate(410 248) rotate(8 168 214)">
      <rect x="0" y="52" width="220" height="332" rx="26" fill="#1F2E4F"/>
      <rect x="16" y="32" width="220" height="332" rx="26" fill="#345D89"/>
      <rect x="28" y="32" width="166" height="332" rx="22" fill="url(#book-blue)"/>
      <rect x="194" y="32" width="42" height="332" rx="14" fill="url(#pages)"/>
      <path d="M200 58C214.667 61.3333 225 66.8333 231 74.5" stroke="#D6C29F" stroke-width="4" stroke-linecap="round"/>
      <path d="M198 102C212.667 105.333 223 110.833 229 118.5" stroke="#D6C29F" stroke-width="4" stroke-linecap="round"/>
      <rect x="58" y="108" width="98" height="24" rx="12" fill="#D8B771" fill-opacity="0.82"/>
      <rect x="58" y="152" width="72" height="12" rx="6" fill="#F4ECE3" fill-opacity="0.78"/>
      <rect x="58" y="176" width="96" height="12" rx="6" fill="#F4ECE3" fill-opacity="0.6"/>
    </g>

    <g transform="translate(352 444)">
      <ellipse cx="154" cy="130" rx="168" ry="136" fill="#C9B18C" fill-opacity="0.28"/>
      <rect x="0" y="36" width="308" height="180" rx="28" fill="#284032"/>
      <rect x="14" y="18" width="308" height="180" rx="28" fill="#355843"/>
      <rect x="34" y="18" width="240" height="180" rx="22" fill="url(#book-green)"/>
      <rect x="274" y="18" width="48" height="180" rx="14" fill="url(#pages)"/>
      <path d="M280 40C297.333 42.6667 309.333 47.8333 316 55.5" stroke="#D4C09C" stroke-width="4" stroke-linecap="round"/>
      <path d="M278 78C295.333 80.6667 307.333 85.8333 314 93.5" stroke="#D4C09C" stroke-width="4" stroke-linecap="round"/>
      <rect x="68" y="70" width="140" height="24" rx="12" fill="#E1C48F" fill-opacity="0.82"/>
      <rect x="68" y="112" width="108" height="12" rx="6" fill="#F0E8DF" fill-opacity="0.76"/>
      <rect x="68" y="136" width="132" height="12" rx="6" fill="#F0E8DF" fill-opacity="0.56"/>
    </g>
  </g>

  <circle cx="734" cy="266" r="34" fill="#FFF7EA" fill-opacity="0.44"/>
  <circle cx="792" cy="334" r="16" fill="#FFF7EA" fill-opacity="0.34"/>
</svg>
